<svg height="512pt" viewBox="0 0 512 512.00009" width="512pt" xmlns="http://www.w3.org/2000/svg"><path d="m464.972656 110.53125c5.589844 23.886719 16.851563 45.59375 32.285156 63.617188 1.496094 1.75 2.613282 3.792968 3.292969 5.988281 7.40625 23.894531 11.421875 49.277343 11.449219 75.597656.140625 141.148437-114.851562 256.265625-256 256.265625-140.210938 0-254.097656-112.722656-255.9765625-252.484375-1.9140625-142.222656 113.5273435-259.398437 255.7617185-259.515625 84.46875-.0703125 159.390625 40.777344 206.066406 103.804688 1.484376 2.003906 2.550782 4.296874 3.121094 6.726562zm0 0" fill="#7ecd00"/><path d="m502 216.257812c0 77.355469-29.285156 147.152344-76.273438 196.628907-11.269531 11.867187-30.296874 11.867187-41.5625 0-24.871093-26.1875-44.777343-58.070313-58.011718-93.753907-2.8125-7.578124-9.976563-12.660156-18.0625-12.660156h-104.179688c-8.085937 0-15.25 5.082032-18.0625 12.660156-13.234375 35.683594-33.140625 67.566407-58.011718 93.753907-11.269532 11.867187-30.296876 11.867187-41.5625 0-46.988282-49.476563-76.273438-119.273438-76.273438-196.628907 0-10.191406.511719-22.917968 1.503906-36.371093 8.640625-27.785157 21.894532-53.535157 38.855469-76.367188 4.828125-1.921875 9.976563-3.21875 15.351563-3.769531 60.433593-6.207031 124.273437-9.535156 190.289062-9.535156s129.851562 3.328125 190.285156 9.535156c5.378906.550781 10.523438 1.847656 15.355469 3.769531 16.960937 22.832031 30.210937 48.582031 38.851563 76.367188.996093 13.453125 1.507812 26.179687 1.507812 36.371093zm0 0" fill="#d3f1f5"/><path d="m152.082031 383.296875c-7.425781 10.503906-15.523437 20.402344-24.246093 29.589844-11.269532 11.867187-30.296876 11.867187-41.5625 0-46.988282-49.476563-76.273438-119.273438-76.273438-196.628907 0-17.597656 1.519531-42.75 4.421875-66.171874 2.8125-22.71875 18.632813-41.238282 39.777344-47.941407-1.070313 3.363281-1.855469 6.859375-2.300781 10.464844-2.898438 23.421875-4.421876 48.574219-4.421876 66.171875 0 77.355469 29.285157 147.152344 76.273438 196.628906 7.527344 7.925782 18.507812 10.546875 28.332031 7.886719zm0 0" fill="#ade8f0"/><path d="m485 215c0 44.183594-35.816406 80-80 80s-80-35.816406-80-80 35.816406-80 80-80 80 35.816406 80 80zm-199-95h-60c-8.285156 0-15 6.714844-15 15s6.714844 15 15 15h60c8.285156 0 15-6.714844 15-15s-6.714844-15-15-15zm0 0" fill="#84deea"/><path d="m460 215c0 30.375-24.625 55-55 55s-55-24.625-55-55 24.625-55 55-55 55 24.625 55 55zm0 0" fill="#013f69"/><path d="m459.882812 211.40625c2.035157 32.003906-23.316406 58.59375-54.882812 58.59375-1.613281 0-3.207031-.070312-4.78125-.207031-5.761719-.5-10.496094-4.691407-11.910156-10.300781-.027344-.113282-.054688-.226563-.085938-.339844-2.238281-8.960938 5.027344-17.613282 14.226563-16.769532.839843.078126 1.691406.117188 2.550781.117188 15.769531 0 28.441406-13.273438 27.445312-29.261719-.835937-13.417969-11.566406-24.453125-24.960937-25.628906-1.660156-.144531-3.289063-.144531-4.882813-.003906-9.265624.796875-16.632812-7.730469-14.378906-16.757813.03125-.113281.058594-.226562.085938-.339844 1.4375-5.699218 6.3125-9.839843 12.167968-10.320312 3.570313-.296875 7.238282-.246094 10.976563.1875 26.195313 3.039062 46.757813 24.710938 48.429687 51.03125zm0 0" fill="#056099"/><path d="m125 190h-10c-8.285156 0-15-6.714844-15-15v-25c0-8.285156 6.714844-15 15-15h10c8.285156 0 15 6.714844 15 15v25c0 8.285156-6.714844 15-15 15zm0 0" fill="#e31e7f"/><path d="m125 170c-8.285156 0-15-6.714844-15-15v-5c0-8.285156 6.714844-15 15-15s15 6.714844 15 15v5c0 8.285156-6.714844 15-15 15zm0 0" fill="#fd3d96"/><path d="m125 285h-10c-8.285156 0-15-6.714844-15-15v-25c0-8.285156 6.714844-15 15-15h10c8.285156 0 15 6.714844 15 15v25c0 8.285156-6.714844 15-15 15zm0 0" fill="#6bae01"/><path d="m125 265c-8.285156 0-15-6.714844-15-15v-5c0-8.285156 6.714844-15 15-15s15 6.714844 15 15v5c0 8.285156-6.714844 15-15 15zm0 0" fill="#7ecd00"/><path d="m155 190h25c8.285156 0 15 6.714844 15 15v10c0 8.285156-6.714844 15-15 15h-25c-8.285156 0-15-6.714844-15-15v-10c0-8.285156 6.714844-15 15-15zm0 0" fill="#d6bf01"/><path d="m175 190h5c8.285156 0 15 6.714844 15 15s-6.714844 15-15 15h-5c-8.285156 0-15-6.714844-15-15s6.714844-15 15-15zm0 0" fill="#fde803"/><path d="m60 190h25c8.285156 0 15 6.714844 15 15v10c0 8.285156-6.714844 15-15 15h-25c-8.285156 0-15-6.714844-15-15v-10c0-8.285156 6.714844-15 15-15zm0 0" fill="#0cabb9"/><path d="m80 190h5c8.285156 0 15 6.714844 15 15s-6.714844 15-15 15h-5c-8.285156 0-15-6.714844-15-15s6.714844-15 15-15zm0 0" fill="#2abbc7"/><path d="m231 270c-8.285156 0-15-6.714844-15-15s6.714844-15 15-15 15 6.714844 15 15-6.714844 15-15 15zm0 0" fill="#015081"/><path d="m281 270c-8.285156 0-15-6.714844-15-15s6.714844-15 15-15 15 6.714844 15 15-6.714844 15-15 15zm0 0" fill="#fd3d96"/></svg>